<svg width="16" height="16" viewBox="0 0 16 16" fill="none" xmlns="http://www.w3.org/2000/svg">
<path d="M10.56 0L16 4.32941L10.56 3.01176L0 6.4L10.56 0Z" fill="#4285F4"/>
<path d="M10.56 0L16 4.32941L10.56 3.01176L0 6.4L10.56 0Z" fill="#4285F4"/>
<path d="M10.56 3.20001L16 7.52942L10.56 6.21178L0 9.60001L10.56 3.20001Z" fill="#DB4437"/>
<path d="M10.56 3.20001L16 7.52942L10.56 6.21178L0 9.60001L10.56 3.20001Z" fill="#DB4437"/>
<path d="M10.56 6.39999L16 10.7294L10.56 9.41176L0 12.8L10.56 6.39999Z" fill="#F4B400"/>
<path d="M10.56 6.39999L16 10.7294L10.56 9.41176L0 12.8L10.56 6.39999Z" fill="#F4B400"/>
<path d="M10.56 9.60001L16 13.9294L10.56 12.6118L0 16L10.56 9.60001Z" fill="#0F9D58"/>
<path d="M10.56 9.60001L16 13.9294L10.56 12.6118L0 16L10.56 9.60001Z" fill="#0F9D58"/>
</svg>
