<svg width="64" height="64" viewBox="0 0 64 64" fill="none" xmlns="http://www.w3.org/2000/svg">
<path d="M42.24 0L64 17.3176L42.24 12.0471L0 25.6L42.24 0Z" fill="#4285F4"/>
<path d="M42.24 0L64 17.3176L42.24 12.0471L0 25.6L42.24 0Z" fill="#4285F4"/>
<path d="M42.24 12.8L64 30.1176L42.24 24.847L0 38.4L42.24 12.8Z" fill="#DB4437"/>
<path d="M42.24 12.8L64 30.1176L42.24 24.847L0 38.4L42.24 12.8Z" fill="#DB4437"/>
<path d="M42.24 25.6L64 42.9176L42.24 37.647L0 51.2L42.24 25.6Z" fill="#F4B400"/>
<path d="M42.24 25.6L64 42.9176L42.24 37.647L0 51.2L42.24 25.6Z" fill="#F4B400"/>
<path d="M42.24 38.4L64 55.7177L42.24 50.4471L0 64L42.24 38.4Z" fill="#0F9D58"/>
<path d="M42.24 38.4L64 55.7177L42.24 50.4471L0 64L42.24 38.4Z" fill="#0F9D58"/>
</svg>
