<svg width="48" height="48" viewBox="0 0 48 48" fill="none" xmlns="http://www.w3.org/2000/svg">
<path d="M31.68 0L48 12.9882L31.68 9.03529L0 19.2L31.68 0Z" fill="#4285F4"/>
<path d="M31.68 0L48 12.9882L31.68 9.03529L0 19.2L31.68 0Z" fill="#4285F4"/>
<path d="M31.68 9.60001L48 22.5882L31.68 18.6353L0 28.8L31.68 9.60001Z" fill="#DB4437"/>
<path d="M31.68 9.60001L48 22.5882L31.68 18.6353L0 28.8L31.68 9.60001Z" fill="#DB4437"/>
<path d="M31.68 19.2L48 32.1882L31.68 28.2353L0 38.4L31.68 19.2Z" fill="#F4B400"/>
<path d="M31.68 19.2L48 32.1882L31.68 28.2353L0 38.4L31.68 19.2Z" fill="#F4B400"/>
<path d="M31.68 28.8L48 41.7883L31.68 37.8353L0 48L31.68 28.8Z" fill="#0F9D58"/>
<path d="M31.68 28.8L48 41.7883L31.68 37.8353L0 48L31.68 28.8Z" fill="#0F9D58"/>
</svg>
