<svg width="128" height="128" viewBox="0 0 128 128" fill="none" xmlns="http://www.w3.org/2000/svg">
<path d="M84.48 0L128 34.6353L84.48 24.0941L0 51.2L84.48 0Z" fill="#4285F4"/>
<path d="M84.48 0L128 34.6353L84.48 24.0941L0 51.2L84.48 0Z" fill="#4285F4"/>
<path d="M84.48 25.6L128 60.2353L84.48 49.6941L0 76.8L84.48 25.6Z" fill="#DB4437"/>
<path d="M84.48 25.6L128 60.2353L84.48 49.6941L0 76.8L84.48 25.6Z" fill="#DB4437"/>
<path d="M84.48 51.2L128 85.8353L84.48 75.2941L0 102.4L84.48 51.2Z" fill="#F4B400"/>
<path d="M84.48 51.2L128 85.8353L84.48 75.2941L0 102.4L84.48 51.2Z" fill="#F4B400"/>
<path d="M84.48 76.8L128 111.435L84.48 100.894L0 128L84.48 76.8Z" fill="#0F9D58"/>
<path d="M84.48 76.8L128 111.435L84.48 100.894L0 128L84.48 76.8Z" fill="#0F9D58"/>
</svg>
