<svg width="32" height="32" viewBox="0 0 32 32" fill="none" xmlns="http://www.w3.org/2000/svg">
<path d="M21.12 0L32 8.65882L21.12 6.02353L0 12.8L21.12 0Z" fill="#4285F4"/>
<path d="M21.12 0L32 8.65882L21.12 6.02353L0 12.8L21.12 0Z" fill="#4285F4"/>
<path d="M21.12 6.39999L32 15.0588L21.12 12.4235L0 19.2L21.12 6.39999Z" fill="#DB4437"/>
<path d="M21.12 6.39999L32 15.0588L21.12 12.4235L0 19.2L21.12 6.39999Z" fill="#DB4437"/>
<path d="M21.12 12.8L32 21.4588L21.12 18.8235L0 25.6L21.12 12.8Z" fill="#F4B400"/>
<path d="M21.12 12.8L32 21.4588L21.12 18.8235L0 25.6L21.12 12.8Z" fill="#F4B400"/>
<path d="M21.12 19.2L32 27.8588L21.12 25.2235L0 32L21.12 19.2Z" fill="#0F9D58"/>
<path d="M21.12 19.2L32 27.8588L21.12 25.2235L0 32L21.12 19.2Z" fill="#0F9D58"/>
</svg>
